<svg width="528" height="528" viewBox="0 0 528 528" fill="none" xmlns="http://www.w3.org/2000/svg">
<path d="M522.937 312.279C502.562 421.059 416.442 505.544 307.292 523.829C198.143 542.114 89.1896 490.304 34.4801 394.104C-20.2294 297.901 -9.05442 177.775 62.4606 93.316C133.976 8.8565 250.617 -21.9665 354.522 16.1365C475.442 60.481 546.642 185.683 522.937 312.279Z" fill="#FFE700"/>
<path d="M122.512 152.191C149.337 130.163 169.762 129.244 202.762 129.546C213.554 129.644 225.802 129.387 236.462 130.146C255.877 131.529 279.872 142.797 292.542 157.893C292.897 158.16 293.237 158.406 293.562 158.728C310.612 175.735 318.612 199.336 319.227 223.047C319.512 234.192 319.252 245.154 319.457 255.744C320.077 287.434 315.957 309.485 293.492 333.362C279.357 348.384 260.342 357.939 239.834 360.944C233.072 361.934 223.113 361.689 216.059 361.684C203.843 361.579 191.626 361.614 179.41 361.784C164.189 375.044 148.083 388.094 132.708 401.224C128.328 404.964 121.025 402.194 120.298 396.524C119.417 389.659 119.74 382.249 119.756 375.229C119.838 363.319 119.826 351.409 119.721 339.497C116.729 336.629 113.884 333.611 111.199 330.454C88.5496 303.487 90.5061 280.223 90.1511 247.838C89.7286 209.269 89.6756 179.326 122.512 152.191Z" fill="white"/>
<path d="M122.511 152.191C149.336 130.163 169.762 129.244 202.762 129.546C213.554 129.644 225.801 129.387 236.461 130.146C255.877 131.529 279.872 142.797 292.542 157.893C292.847 159.352 293.337 158.84 293.472 160.723C292.032 161.222 290.502 161.512 289.082 161.861C288.762 161.94 287.137 164.109 286.317 164.13C280.727 164.275 274.087 162.09 268.592 160.946C266.007 160.408 258.707 159.944 257.087 159.3C251.151 156.941 244.667 153.337 238.187 152.665C235.586 152.395 230.402 153.982 227.119 154.101C223.837 154.22 217.007 152.068 215.267 152.202C208.718 152.709 204.326 153.172 197.645 153.072C195.392 154.502 194.947 154.843 192.482 155.708C185.735 155.039 178.912 153.022 172.302 152.063C158.042 149.994 144.512 150.942 130.28 152.603C126.807 153.008 125.527 153.805 122.511 152.191Z" fill="black"/>
<path d="M264.797 224.576C268.327 225.8 291.012 248.983 291.547 252.978C288.132 256.58 273.472 255.353 268.152 255.331L268.167 262.625C268.147 277.265 269.417 288.628 257.932 299.721C245.455 311.77 226.658 309.326 210.478 309.323C196.775 309.353 183.072 309.291 169.37 309.137C146.262 308.5 142.575 289.088 142.784 270.484C167.104 269.992 195.013 270.141 219.342 270.693C222.222 267.96 225.13 264.969 227.872 262.095C239.934 249.456 252.277 236.737 264.797 224.576Z" fill="#FFE700"/>
<path d="M172.715 183.057C193.67 182.514 216.031 183.062 237.067 183.016C249.485 182.989 258.312 191.368 263.557 202.329C255.342 206.646 250.095 215.927 242.867 221.462L234.412 221.739L142.716 221.761C143.039 199.931 146.795 184.056 172.715 183.057Z" fill="#FFE700"/>
<path d="M286.507 138.315L326.142 138.26C334.882 138.259 348.037 137.916 356.317 138.857C373.882 140.855 393.902 149.956 406.817 162.052L408.457 163.583C428.357 182.326 436.892 205.04 437.137 231.924C437.237 242.954 436.917 256.008 437.127 266.678C437.852 303.237 432.597 321.84 407.207 348.654C407.142 360.709 407.142 372.759 407.202 384.814C407.217 391.539 407.482 401.014 406.652 407.504C399.407 416.964 393.027 410.579 386.047 404.454C373.017 393.014 358.832 382.454 346.022 370.849C322.202 370.949 287.882 373.284 266.292 365.264C290.192 354.134 305.252 341.152 318.307 318.279C328.342 317.869 358.112 318.95 366.012 316.825C369.552 315.883 372.797 314.055 375.437 311.514C384.692 302.715 384.792 291.109 385.202 279.469C368.007 278.799 347.602 279.588 329.922 279.44C330.462 263.445 330.342 246.858 330.382 230.819L385.322 230.761C384.557 218.688 384.662 206.649 374.777 197.895C366.812 190.844 356.277 191.815 346.407 191.771C339.517 191.741 332.592 191.791 325.717 192.25C323.882 188.834 321.397 181.379 319.392 177.181C314.932 167.847 309.892 161.885 303.457 153.941C298.817 148.563 292.367 142.388 286.507 138.315Z" fill="black"/>
<path d="M286.507 138.315L326.142 138.26C334.882 138.259 348.037 137.916 356.317 138.857C373.882 140.855 393.902 149.956 406.817 162.052C406.382 162.515 406.307 162.653 405.672 163.007C403.722 164.113 401.397 164.364 399.252 163.701C397.482 163.162 397.412 163.167 395.552 162.976L394.507 164.15C393.067 163.635 391.797 162.25 390.572 161.326C389.547 160.559 389.052 160.501 387.872 160.642C387.432 160.694 386.992 160.724 386.557 160.799C383.182 161.385 371.317 156.805 365.112 156.545C354.492 156.1 346.162 160.007 336.757 159.351C332.507 159.055 329.197 161.755 325.212 161.673C319.632 158.612 314.777 143.002 303.457 153.941C298.817 148.563 292.367 142.388 286.507 138.315Z" fill="white"/>
</svg>
